<svg width="110" height="45" viewBox="0 0 110 45" fill="none" xmlns="http://www.w3.org/2000/svg">
<path d="M35.8548 9.5L55 1.54148L74.1452 9.5H35.8548Z" stroke="#FBBF24"/>
<g filter="url(#filter0_d_2_22)">
<rect x="5" y="8" width="100" height="25" rx="5" fill="#78350F"/>
<path d="M15.846 16.636C16.758 16.636 17.546 16.808 18.21 17.152C18.882 17.488 19.394 17.972 19.746 18.604C20.106 19.236 20.286 19.98 20.286 20.836C20.286 21.692 20.106 22.436 19.746 23.068C19.394 23.692 18.882 24.172 18.21 24.508C17.546 24.836 16.758 25 15.846 25H13.242V16.636H15.846ZM15.846 24.1C16.926 24.1 17.75 23.816 18.318 23.248C18.886 22.672 19.17 21.868 19.17 20.836C19.17 19.796 18.882 18.984 18.306 18.4C17.738 17.816 16.918 17.524 15.846 17.524H14.334V24.1H15.846ZM22.5304 17.356C22.3224 17.356 22.1464 17.284 22.0024 17.14C21.8584 16.996 21.7864 16.82 21.7864 16.612C21.7864 16.404 21.8584 16.228 22.0024 16.084C22.1464 15.94 22.3224 15.868 22.5304 15.868C22.7304 15.868 22.8984 15.94 23.0344 16.084C23.1784 16.228 23.2504 16.404 23.2504 16.612C23.2504 16.82 23.1784 16.996 23.0344 17.14C22.8984 17.284 22.7304 17.356 22.5304 17.356ZM23.0584 18.424V25H21.9664V18.424H23.0584ZM27.6075 23.992L29.6475 18.424H30.8115L28.2315 25H26.9595L24.3795 18.424H25.5555L27.6075 23.992ZM32.6901 17.356C32.4821 17.356 32.3061 17.284 32.1621 17.14C32.0181 16.996 31.9461 16.82 31.9461 16.612C31.9461 16.404 32.0181 16.228 32.1621 16.084C32.3061 15.94 32.4821 15.868 32.6901 15.868C32.8901 15.868 33.0581 15.94 33.1941 16.084C33.3381 16.228 33.4101 16.404 33.4101 16.612C33.4101 16.82 33.3381 16.996 33.1941 17.14C33.0581 17.284 32.8901 17.356 32.6901 17.356ZM33.2181 18.424V25H32.1261V18.424H33.2181ZM37.6472 25.108C37.1432 25.108 36.6912 25.024 36.2912 24.856C35.8912 24.68 35.5752 24.44 35.3432 24.136C35.1112 23.824 34.9832 23.468 34.9592 23.068H36.0872C36.1192 23.396 36.2712 23.664 36.5432 23.872C36.8232 24.08 37.1872 24.184 37.6352 24.184C38.0512 24.184 38.3792 24.092 38.6192 23.908C38.8592 23.724 38.9792 23.492 38.9792 23.212C38.9792 22.924 38.8512 22.712 38.5952 22.576C38.3392 22.432 37.9432 22.292 37.4072 22.156C36.9192 22.028 36.5192 21.9 36.2072 21.772C35.9032 21.636 35.6392 21.44 35.4152 21.184C35.1992 20.92 35.0912 20.576 35.0912 20.152C35.0912 19.816 35.1912 19.508 35.3912 19.228C35.5912 18.948 35.8752 18.728 36.2432 18.568C36.6112 18.4 37.0312 18.316 37.5032 18.316C38.2312 18.316 38.8192 18.5 39.2672 18.868C39.7152 19.236 39.9552 19.74 39.9872 20.38H38.8952C38.8712 20.036 38.7312 19.76 38.4752 19.552C38.2272 19.344 37.8912 19.24 37.4672 19.24C37.0752 19.24 36.7632 19.324 36.5312 19.492C36.2992 19.66 36.1832 19.88 36.1832 20.152C36.1832 20.368 36.2512 20.548 36.3872 20.692C36.5312 20.828 36.7072 20.94 36.9152 21.028C37.1312 21.108 37.4272 21.2 37.8032 21.304C38.2752 21.432 38.6592 21.56 38.9552 21.688C39.2512 21.808 39.5032 21.992 39.7112 22.24C39.9272 22.488 40.0392 22.812 40.0472 23.212C40.0472 23.572 39.9472 23.896 39.7472 24.184C39.5472 24.472 39.2632 24.7 38.8952 24.868C38.5352 25.028 38.1192 25.108 37.6472 25.108ZM44.6968 25.108C44.0808 25.108 43.5208 24.968 43.0168 24.688C42.5208 24.408 42.1288 24.012 41.8408 23.5C41.5608 22.98 41.4208 22.38 41.4208 21.7C41.4208 21.028 41.5648 20.436 41.8528 19.924C42.1488 19.404 42.5488 19.008 43.0528 18.736C43.5568 18.456 44.1208 18.316 44.7448 18.316C45.3688 18.316 45.9328 18.456 46.4368 18.736C46.9408 19.008 47.3368 19.4 47.6248 19.912C47.9208 20.424 48.0688 21.02 48.0688 21.7C48.0688 22.38 47.9168 22.98 47.6128 23.5C47.3168 24.012 46.9128 24.408 46.4008 24.688C45.8888 24.968 45.3208 25.108 44.6968 25.108ZM44.6968 24.148C45.0888 24.148 45.4568 24.056 45.8008 23.872C46.1448 23.688 46.4208 23.412 46.6288 23.044C46.8448 22.676 46.9528 22.228 46.9528 21.7C46.9528 21.172 46.8488 20.724 46.6408 20.356C46.4328 19.988 46.1608 19.716 45.8248 19.54C45.4888 19.356 45.1248 19.264 44.7328 19.264C44.3328 19.264 43.9648 19.356 43.6288 19.54C43.3008 19.716 43.0368 19.988 42.8368 20.356C42.6368 20.724 42.5368 21.172 42.5368 21.7C42.5368 22.236 42.6328 22.688 42.8248 23.056C43.0248 23.424 43.2888 23.7 43.6168 23.884C43.9448 24.06 44.3048 24.148 44.6968 24.148ZM50.8365 19.492C51.0285 19.116 51.3005 18.824 51.6525 18.616C52.0125 18.408 52.4485 18.304 52.9605 18.304V19.432H52.6725C51.4485 19.432 50.8365 20.096 50.8365 21.424V25H49.7445V18.424H50.8365V19.492ZM55.5531 19.492C55.7451 19.116 56.0171 18.824 56.3691 18.616C56.7291 18.408 57.1651 18.304 57.6771 18.304V19.432H57.3891C56.1651 19.432 55.5531 20.096 55.5531 21.424V25H54.4611V18.424H55.5531V19.492ZM64.8417 18.424L60.8817 28.096H59.7537L61.0497 24.928L58.3977 18.424H59.6097L61.6737 23.752L63.7137 18.424H64.8417ZM71.7306 16.432C72.5306 16.432 73.1586 16.58 73.6146 16.876C74.0706 17.172 74.3786 17.592 74.5386 18.136H75.4386V18.784H74.6586C74.6666 18.856 74.6706 18.928 74.6706 19C74.6786 19.072 74.6826 19.144 74.6826 19.216C74.6826 19.32 74.6786 19.428 74.6706 19.54C74.6626 19.644 74.6506 19.748 74.6346 19.852H75.4386V20.5H74.4666C74.2826 20.988 73.9546 21.396 73.4826 21.724C73.0186 22.044 72.3666 22.204 71.5266 22.204H70.8546V25H69.8586V20.5H68.8146V19.852H69.8586V18.784H68.8146V18.136H69.8586V16.432H71.7306ZM71.6946 17.32H70.8546V18.136H73.3866C73.0986 17.592 72.5346 17.32 71.6946 17.32ZM73.5906 18.784H70.8546V19.852H73.5786C73.5946 19.764 73.6066 19.672 73.6146 19.576C73.6226 19.472 73.6266 19.368 73.6266 19.264C73.6266 19.096 73.6146 18.936 73.5906 18.784ZM73.3506 20.5H70.8546V21.316H71.4666C71.9386 21.316 72.3306 21.252 72.6426 21.124C72.9546 20.996 73.1906 20.788 73.3506 20.5ZM77.8178 19.492C78.0098 19.116 78.2818 18.824 78.6338 18.616C78.9938 18.408 79.4298 18.304 79.9418 18.304V19.432H79.6538C78.4298 19.432 77.8178 20.096 77.8178 21.424V25H76.7258V18.424H77.8178V19.492ZM82.0064 17.356C81.7984 17.356 81.6224 17.284 81.4784 17.14C81.3344 16.996 81.2624 16.82 81.2624 16.612C81.2624 16.404 81.3344 16.228 81.4784 16.084C81.6224 15.94 81.7984 15.868 82.0064 15.868C82.2064 15.868 82.3744 15.94 82.5104 16.084C82.6544 16.228 82.7264 16.404 82.7264 16.612C82.7264 16.82 82.6544 16.996 82.5104 17.14C82.3744 17.284 82.2064 17.356 82.0064 17.356ZM82.5344 18.424V25H81.4424V18.424H82.5344ZM84.2275 21.7C84.2275 21.02 84.3635 20.428 84.6355 19.924C84.9075 19.412 85.2835 19.016 85.7635 18.736C86.2515 18.456 86.8075 18.316 87.4315 18.316C88.2395 18.316 88.9035 18.512 89.4235 18.904C89.9515 19.296 90.2995 19.84 90.4675 20.536H89.2915C89.1795 20.136 88.9595 19.82 88.6315 19.588C88.3115 19.356 87.9115 19.24 87.4315 19.24C86.8075 19.24 86.3035 19.456 85.9195 19.888C85.5355 20.312 85.3435 20.916 85.3435 21.7C85.3435 22.492 85.5355 23.104 85.9195 23.536C86.3035 23.968 86.8075 24.184 87.4315 24.184C87.9115 24.184 88.3115 24.072 88.6315 23.848C88.9515 23.624 89.1715 23.304 89.2915 22.888H90.4675C90.2915 23.56 89.9395 24.1 89.4115 24.508C88.8835 24.908 88.2235 25.108 87.4315 25.108C86.8075 25.108 86.2515 24.968 85.7635 24.688C85.2835 24.408 84.9075 24.012 84.6355 23.5C84.3635 22.988 84.2275 22.388 84.2275 21.7ZM98.1645 21.46C98.1645 21.668 98.1525 21.888 98.1285 22.12H92.8725C92.9125 22.768 93.1325 23.276 93.5325 23.644C93.9405 24.004 94.4325 24.184 95.0085 24.184C95.4805 24.184 95.8725 24.076 96.1845 23.86C96.5045 23.636 96.7285 23.34 96.8565 22.972H98.0325C97.8565 23.604 97.5045 24.12 96.9765 24.52C96.4485 24.912 95.7925 25.108 95.0085 25.108C94.3845 25.108 93.8245 24.968 93.3285 24.688C92.8405 24.408 92.4565 24.012 92.1765 23.5C91.8965 22.98 91.7565 22.38 91.7565 21.7C91.7565 21.02 91.8925 20.424 92.1645 19.912C92.4365 19.4 92.8165 19.008 93.3045 18.736C93.8005 18.456 94.3685 18.316 95.0085 18.316C95.6325 18.316 96.1845 18.452 96.6645 18.724C97.1445 18.996 97.5125 19.372 97.7685 19.852C98.0325 20.324 98.1645 20.86 98.1645 21.46ZM97.0365 21.232C97.0365 20.816 96.9445 20.46 96.7605 20.164C96.5765 19.86 96.3245 19.632 96.0045 19.48C95.6925 19.32 95.3445 19.24 94.9605 19.24C94.4085 19.24 93.9365 19.416 93.5445 19.768C93.1605 20.12 92.9405 20.608 92.8845 21.232H97.0365Z" fill="white"/>
</g>
<circle cx="55" cy="2" r="2" fill="#6B7280"/>
<defs>
<filter id="filter0_d_2_22" x="0" y="8" width="110" height="37" filterUnits="userSpaceOnUse" color-interpolation-filters="sRGB">
<feFlood flood-opacity="0" result="BackgroundImageFix"/>
<feColorMatrix in="SourceAlpha" type="matrix" values="0 0 0 0 0 0 0 0 0 0 0 0 0 0 0 0 0 0 127 0" result="hardAlpha"/>
<feOffset dy="7"/>
<feGaussianBlur stdDeviation="2.5"/>
<feComposite in2="hardAlpha" operator="out"/>
<feColorMatrix type="matrix" values="0 0 0 0 0 0 0 0 0 0 0 0 0 0 0 0 0 0 0.25 0"/>
<feBlend mode="normal" in2="BackgroundImageFix" result="effect1_dropShadow_2_22"/>
<feBlend mode="normal" in="SourceGraphic" in2="effect1_dropShadow_2_22" result="shape"/>
</filter>
</defs>
</svg>
